<svg xmlns="http://www.w3.org/2000/svg" xmlns:xlink="http://www.w3.org/1999/xlink" version="1.1" id="Layer_1" x="0px" y="0px" viewBox="0 0 100 100" enable-background="new 0 0 100 100" xml:space="preserve">
<g id="g-2">
	<path fill="#a0bf2c" d="M38.8,93.1L66,66l27.2-27.2c8.5-8.5,8.5-22.4,0-30.9l-4.3-4.3L85.2,0l-29,29l3.6,3.6l16.4,7.6l-4.2,4.2   L58.2,58.2L44.4,72.1l-4.2,4.2l-7.7-16.4L29,56.3l-29,29l3.6,3.6l4.3,4.3C16.4,101.7,30.3,101.7,38.8,93.1z" fill-opacity="1" id="path-3" type="solidColor"></path>
	<path fill="#a0bf2c" d="M19.8,41.3v2.4h6.8v-2.4c0-7.4,6-13.4,13.4-13.4c0.4,0,0.8,0,1.2,0.1l2.6,0.2v-6.9l-2.2-0.2   c-0.5-0.1-1-0.1-1.6-0.1C28.9,21,19.8,30.1,19.8,41.3z" fill-opacity="1" id="path-4" type="solidColor"></path>
	<path fill="#a0bf2c" d="M3.4,39.3v4.1H15v-4.1C15,26.9,25,16.8,37.4,16.8c0.7,0,1.4,0.1,2.1,0.1l4.4,0.4V5.8l-3.8-0.3   c-0.9-0.1-1.8-0.1-2.8-0.1C18.7,5.3,3.4,20.6,3.4,39.3z" fill-opacity="1" id="path-5" type="solidColor"></path>
</g>
</svg>